<?xml version="1.0" encoding="UTF-8"?> <svg xmlns="http://www.w3.org/2000/svg" xmlns:xlink="http://www.w3.org/1999/xlink" version="1.1" id="Layer_1" x="0px" y="0px" viewBox="0 0 1797.8 605.9" style="enable-background:new 0 0 1797.8 605.9;" xml:space="preserve"> <style type="text/css"> .st0{fill:#FFFFFF;} </style> <path class="st0" d="M1776.5,199.1c-17.5-38.8-46.4-75-84.8-104.4s-85.4-52-135.9-66.1s-104.5-20-157.1-18.3 c-26.3,0.8-52.5,3.6-78.4,8.5c-24.8,4.7-49.3,11.2-73.2,19.5c-46.6,16-88.6,37.1-126.8,60.8c-36.8,23-71.9,48.7-104.9,77 c-28.7,24.6-56.1,50.6-82.1,77.9c-25.9-24.4-52.9-48.6-81.5-72.1c-34-27.8-70.2-54.9-110.4-79.9S657,53.9,607.2,35.9 c-25.5-9.3-51.5-16.8-78-22.6c-27.5-6-55.4-9.9-83.5-11.9C431.6,0.5,417.4,0,403.2,0S375.1,0.5,361,1.5c-28.1,2-56,6.1-83.5,12.2 c-54.7,12.2-106.4,33.5-149,62.2s-75.6,64.8-96.6,103.4C21.7,198,13.8,217.8,8.4,238.4c-5,19.7-7.7,39.8-8.3,60.1 c-0.1,5-0.1,10,0,15c0.1,5,0.4,10.2,0.9,15.3c0.9,10.3,2.6,20.6,5,30.7c5,20.6,12.8,40.5,23.1,59.1c10.9,19.4,24,37.5,39.2,53.8 c16.1,17.2,34,32.7,53.4,46.2c20.4,14.3,42.1,26.5,64.8,36.7c23.7,10.7,48.2,19.2,73.4,25.6c51.7,13.1,105.2,17.9,158.5,14.3 c51.1-3.6,101.4-14.7,149.3-32.9c45.7-17.3,86.8-39.2,124.1-63.4s71.3-50.8,103-78.4c24.9-21.9,48.4-44.6,70.7-67.8 c6.8,6.4,13.8,12.9,20.7,19.2c15.8,14.4,32,28.7,48.6,42.7c33.6,28,69.1,55.4,108.4,80.9c19.7,12.7,40.3,25,62.1,36.5 c22.4,11.9,45.4,22.5,68.9,31.8c25,9.8,50.5,18,76.5,24.6c27.1,6.8,54.7,11.6,82.5,14.4c14.1,1.5,28.3,2.4,42.5,2.8 s28.3,0.4,42.5-0.2c28.4-1.2,56.6-4.5,84.5-10c55.3-11,107.6-31,151.4-58.3s79.1-61.6,103-99.2c11.6-18.2,21-37.9,27.8-58.4 c6.5-19.5,10.6-39.8,12.1-60.3C1800.1,279.3,1794.1,238,1776.5,199.1z M780.3,410.3c-35.7,24.7-72.9,47.1-111.3,67.2 c-38.9,20-79.8,37.5-122.7,49.9c-10.7,3.1-21.5,5.9-32.3,8.3s-21.8,4.6-32.8,6.3c-21.9,3.4-44,5.1-66.1,5.2c-21.9,0-43.7-1.7-65.3-5 c-21-3.2-41.6-8.1-61.8-14.6c-39.5-12.9-74.9-31.8-103.5-54.9S134,422.2,120.8,393c-6.6-14.2-11.2-29.3-13.6-44.8 c-1.2-7.5-1.9-15.2-2-22.8c-0.1-3.9,0-7.6,0.2-11.5s0.5-8,0.8-12c3.2-31.7,12.8-62.4,29.9-89.8s41.2-51.5,71.5-70.2 c15.5-9.7,32-17.8,49.1-24.3c18-6.8,36.5-12.1,55.4-15.8c19.6-3.9,39.5-6.4,59.5-7.3c10.1-0.5,20.4-0.7,30.5-0.5s20.2,0.7,30.2,1.6 c39.7,3.6,78.8,12.8,116,27.1c37.2,14.2,72.7,32.8,106.3,54.4c33.6,21.7,65.9,45.5,96.5,71.3c30.7,25.6,60.4,52.6,89.2,80.3 l11.1,10.7l11.3,10.7C835.9,370.8,808.6,391,780.3,410.3z M1693,289.4c-0.3,7.9-1,15.8-2.1,23.6c-4.7,31.7-16.9,61.8-35.5,87.8 c-19.1,26.6-45.2,49.9-76.7,67.9s-68.1,30.9-106.9,37.7c-19.6,3.4-39.4,5.3-59.3,5.6c-10,0.2-20.2,0.1-30.3-0.4s-20.1-1.4-30-2.6 c-39.5-4.9-78.2-15.2-115-30.6c-36.8-15.2-71.9-34.7-105.1-56.9c-33.2-22.3-65.1-46.6-95.5-72.6c-15.3-13-30.2-26.2-45-39.8 c-7.4-6.8-14.7-13.6-21.9-20.5l-22-21l-13.1-12.4c30.8-23.8,62.2-46.9,95.2-68.7c36.2-24.2,73.8-46.1,112.8-65.5 c39.5-19.3,81-36,124.3-47.1c21.6-5.6,43.5-9.7,65.6-12.5c22-2.6,44.1-3.6,66.2-2.8c22,0.8,43.9,3.2,65.6,7 c20.8,3.8,41.4,9.1,61.4,16c18.9,6.6,37.2,14.8,54.6,24.7c16.3,9.1,31.6,20,45.6,32.3c26.9,23.8,46,51.8,56.6,81.6 c5.3,14.8,8.7,30.2,10,45.8C1693.2,273.8,1693.3,281.6,1693,289.4z"></path> </svg> 