<svg xmlns="http://www.w3.org/2000/svg" viewBox="0 0 1289 596.6"><defs><style>.a{fill:#e7eaee;}</style></defs><path class="a" d="M1289,496.3a434.2,434.2,0,0,1-51.8-17.9c-36.8-15.2-71.9-34.7-105.1-56.9a1034.7,1034.7,0,0,1-95.5-72.6c-15.3-13-30.2-26.2-45-39.8-7.4-6.8-14.7-13.6-21.9-20.5l-22-21-13.1-12.4c30.8-23.8,62.2-46.9,95.2-68.7A1021.6,1021.6,0,0,1,1142.6,121c39.5-19.3,81-36,124.3-47.1,7.3-1.9,14.7-3.6,22.1-5.2v-43c-14.1,3.6-28.1,7.8-41.9,12.6-46.6,16-88.6,37.1-126.8,60.8a867.8,867.8,0,0,0-104.9,77A1130.1,1130.1,0,0,0,933.3,254c-25.9-24.4-52.9-48.6-81.5-72.1-34-27.8-70.2-54.9-110.4-79.9S657,53.9,607.2,35.9a604.6,604.6,0,0,0-78-22.6A587,587,0,0,0,445.7,1.4C431.6.5,417.4,0,403.2,0S375.1.5,361,1.5a573.6,573.6,0,0,0-83.5,12.2c-54.7,12.2-106.4,33.5-149,62.2S52.9,140.7,31.9,179.3A262.2,262.2,0,0,0,8.4,238.4,277.1,277.1,0,0,0,.1,298.5q-.2,7.5,0,15c.1,5,.4,10.2.9,15.3a213.5,213.5,0,0,0,5,30.7,236.5,236.5,0,0,0,23.1,59.1,279.6,279.6,0,0,0,39.2,53.8,336.2,336.2,0,0,0,53.4,46.2,394.1,394.1,0,0,0,64.8,36.7,443.2,443.2,0,0,0,73.4,25.6,506.4,506.4,0,0,0,158.5,14.3,524.1,524.1,0,0,0,149.3-32.9c45.7-17.3,86.8-39.2,124.1-63.4s71.3-50.8,103-78.4c24.9-21.9,48.4-44.6,70.7-67.8,6.8,6.4,13.8,12.9,20.7,19.2,15.8,14.4,32,28.7,48.6,42.7,33.6,28,69.1,55.4,108.4,80.9,19.7,12.7,40.3,25,62.1,36.5a680.8,680.8,0,0,0,68.9,31.8,642.7,642.7,0,0,0,76.5,24.6c12.7,3.2,25.4,5.9,38.3,8.2Zm-508.7-86A1057.4,1057.4,0,0,1,669,477.5c-38.9,20-79.8,37.5-122.7,49.9-10.7,3.1-21.5,5.9-32.3,8.3s-21.8,4.6-32.8,6.3a443.9,443.9,0,0,1-66.1,5.2,432.1,432.1,0,0,1-65.3-5A396.5,396.5,0,0,1,288,527.6c-39.5-12.9-74.9-31.8-103.5-54.9S134,422.2,120.8,393a167,167,0,0,1-13.6-44.8,158.3,158.3,0,0,1-2-22.8c-.1-3.9,0-7.6.2-11.5s.5-8,.8-12c3.2-31.7,12.8-62.4,29.9-89.8s41.2-51.5,71.5-70.2a280.3,280.3,0,0,1,49.1-24.3,343.3,343.3,0,0,1,55.4-15.8,396.4,396.4,0,0,1,59.5-7.3c10.1-.5,20.4-.7,30.5-.5s20.2.7,30.2,1.6a432.5,432.5,0,0,1,116,27.1c37.2,14.2,72.7,32.8,106.3,54.4a945.5,945.5,0,0,1,96.5,71.3c30.7,25.6,60.4,52.6,89.2,80.3l11.1,10.7,11.3,10.7C835.9,370.8,808.6,391,780.3,410.3Z"/></svg>