<?xml version="1.0" encoding="utf-8"?>
<!-- Generator: Adobe Illustrator 24.2.3, SVG Export Plug-In . SVG Version: 6.00 Build 0)  -->
<svg version="1.1" id="Layer_1" xmlns="http://www.w3.org/2000/svg" xmlns:xlink="http://www.w3.org/1999/xlink" x="0px" y="0px"
	 viewBox="0 0 142.4 178.6" style="enable-background:new 0 0 142.4 178.6;" xml:space="preserve">
<path d="M0,60c0,33.1,26.9,60,60,60c8.8,0,17.4-2,25.3-5.7l41.6,64.3l15.5-10l-41.8-64.5c21.5-19.8,25.6-52.2,9.7-76.7
	C92.4-0.4,55.3-8.4,27.4,9.6C10.3,20.7,0,39.7,0,60z M15.9,59.8C16,35.5,35.7,15.9,59.9,16c14.9,0,28.9,7.6,37,20.1
	c13.2,20.4,7.4,47.6-13,60.8s-47.6,7.4-60.8-13C18.4,76.7,15.9,68.3,15.9,59.8z"/>
</svg>
